<svg width="116" height="46" viewBox="0 0 116 46" fill="none" xmlns="http://www.w3.org/2000/svg">
<path d="M8.008 16.2405H14.348V20.1715H8.008V36.4415H2.92V24.6105C2.97564 23.4704 3.44612 22.3899 4.24288 21.5726C5.03963 20.7552 6.10769 20.2572 7.246 20.1725H0V16.2405H2.92V15.0405C2.92 9.89648 6.298 6.75948 11.011 6.75948C12.6033 6.7301 14.1786 7.09021 15.6 7.80848L14.057 11.8655C13.338 11.349 12.4818 11.0577 11.597 11.0285C9.303 11.0285 8.01 12.5765 8.01 14.9595L8.008 16.2405Z" fill="#101A50"/>
<path d="M30.8938 26.4052C30.8938 22.8922 28.6838 20.2152 25.5558 20.2152C22.4278 20.2152 20.2178 22.8922 20.2178 26.4052C20.2178 29.8762 22.4278 32.5122 25.5558 32.5122C28.6838 32.5122 30.8938 29.8772 30.8938 26.4052ZM35.8578 26.4052C35.8578 32.3452 31.7698 36.4852 25.5578 36.4852C19.3858 36.4852 15.2578 32.3442 15.2578 26.4052C15.2578 20.4662 19.3868 16.2422 25.5578 16.2422C31.7718 16.2422 35.8578 20.4662 35.8578 26.4052Z" fill="#101A50"/>
<path d="M44.5226 6.76172H39.4766V36.5407H44.5226V6.76172Z" fill="#101A50"/>
<path d="M53.379 24.6883H62.471C62.43 22.0963 60.803 20.2133 58.217 20.2133C55.673 20.2133 53.838 21.9283 53.379 24.6883ZM64.515 30.1683L67.101 32.9683C65.601 34.9333 62.722 36.4813 58.76 36.4813C52.213 36.4813 48.25 32.3413 48.25 26.4023C48.25 20.4633 52.17 16.2383 58.217 16.2383C63.973 16.2383 67.268 20.2123 67.268 25.5233C67.2782 26.2124 67.2084 26.9003 67.06 27.5733H53.379C53.527 29.0064 54.229 30.325 55.3352 31.2481C56.4415 32.1711 57.8645 32.6254 59.301 32.5143C60.2921 32.5547 61.2791 32.3641 62.184 31.9577C63.0888 31.5512 63.8869 30.94 64.515 30.1723" fill="#101A50"/>
<path d="M68.4307 41.6912C70.6827 41.6912 71.5587 40.3112 71.5587 37.9272L71.3477 16.2422H76.4357L76.6467 37.5922C76.6467 42.7372 74.3117 45.9992 69.0557 45.9992C67.5833 46.1185 66.1209 45.6698 64.9688 44.7452L66.4287 41.1892C67.0375 41.5348 67.729 41.7077 68.4287 41.6892" fill="#101A50"/>
<path d="M92.9535 29.2912V27.6142H92.6185C87.2795 27.6982 85.0275 28.5352 85.0275 30.5002C85.0275 31.8382 86.1125 32.5912 88.0715 32.5912C91.1575 32.5912 92.9515 30.9602 92.9515 29.2912M99.9995 36.1502C99.18 36.3425 98.3413 36.4408 97.4995 36.4432C94.9555 36.4432 93.5375 35.4432 93.1995 33.3062C92.6165 34.4342 90.9485 36.4842 86.7355 36.4842C82.4355 36.4842 80.0625 34.3102 80.0625 31.0482C80.0625 26.3222 84.8625 24.9412 92.6165 24.8162H92.9505V23.8542C92.9505 21.6372 91.6155 20.1732 88.9885 20.1732C86.5675 20.1732 85.2335 21.1352 85.2335 22.7662C85.2356 23.0397 85.2924 23.31 85.4005 23.5612L80.9005 24.3142C80.7323 23.7154 80.6478 23.0962 80.6495 22.4742C80.6495 18.7522 83.8615 16.2422 89.1585 16.2422C94.7895 16.2422 97.9175 19.1702 97.9175 23.9802V30.9232C97.9175 31.9232 98.2515 32.2612 99.0855 32.2612C99.324 32.2565 99.5615 32.2283 99.7945 32.1772L99.9995 36.1502Z" fill="#101A50"/>
<path d="M73.5299 3.97954C73.4419 3.97967 73.3547 3.96243 73.2733 3.9288C73.192 3.89518 73.1181 3.84583 73.0558 3.78359C72.9936 3.72135 72.9442 3.64744 72.9106 3.56609C72.877 3.48474 72.8597 3.39756 72.8599 3.30954V0.668536C72.8564 0.578439 72.8711 0.488566 72.9032 0.4043C72.9353 0.320035 72.984 0.24311 73.0466 0.178135C73.1091 0.113159 73.184 0.0614697 73.267 0.0261623C73.35 -0.00914501 73.4392 -0.0273437 73.5294 -0.0273438C73.6195 -0.0273437 73.7088 -0.00914501 73.7917 0.0261623C73.8747 0.0614697 73.9497 0.113159 74.0122 0.178135C74.0747 0.24311 74.1235 0.320035 74.1555 0.4043C74.1876 0.488566 74.2024 0.578439 74.1989 0.668536V3.30954C74.199 3.39756 74.1818 3.48474 74.1481 3.56609C74.1145 3.64744 74.0652 3.72135 74.0029 3.78359C73.9407 3.84583 73.8668 3.89518 73.7854 3.9288C73.7041 3.96243 73.6179 3.97967 73.5299 3.97954Z" fill="#F251A4"/>
<path d="M75.8716 5.44332C75.7393 5.44302 75.6101 5.40356 75.5002 5.32992C75.3903 5.25628 75.3046 5.15175 75.254 5.02951C75.2035 4.90727 75.1902 4.77279 75.2159 4.64303C75.2416 4.51326 75.3052 4.39401 75.3986 4.30032L77.2606 2.43832C77.3862 2.31274 77.5565 2.24219 77.7341 2.24219C77.9117 2.24219 78.082 2.31274 78.2076 2.43832C78.3332 2.5639 78.4037 2.73422 78.4037 2.91182C78.4037 3.08941 78.3332 3.25974 78.2076 3.38532L76.3456 5.24732C76.2839 5.31021 76.2103 5.36026 76.1291 5.39459C76.0479 5.42891 75.9607 5.44683 75.8726 5.44732" fill="#F251A4"/>
<path d="M77.6306 7.78872H77.0396C76.9495 7.7922 76.8597 7.77746 76.7754 7.74539C76.6911 7.71331 76.6142 7.66456 76.5492 7.60204C76.4842 7.53953 76.4326 7.46455 76.3973 7.38158C76.3619 7.29862 76.3438 7.20938 76.3438 7.11922C76.3438 7.02905 76.3619 6.93982 76.3973 6.85685C76.4326 6.77389 76.4842 6.69891 76.5492 6.63639C76.6142 6.57388 76.6911 6.52513 76.7754 6.49305C76.8597 6.46097 76.9495 6.44624 77.0396 6.44972H77.6306C77.8037 6.45641 77.9675 6.52987 78.0876 6.6547C78.2077 6.77952 78.2747 6.946 78.2747 7.11922C78.2747 7.29243 78.2077 7.45892 78.0876 7.58374C77.9675 7.70856 77.8037 7.78203 77.6306 7.78872Z" fill="#F251A4"/>
<path d="M78.2984 12.5584C78.2103 12.5579 78.1231 12.54 78.042 12.5056C77.9608 12.4713 77.8872 12.4213 77.8254 12.3584L75.0164 9.54938C74.8909 9.4238 74.8203 9.25348 74.8203 9.07588C74.8203 8.89828 74.8909 8.72796 75.0164 8.60238C75.142 8.4768 75.3123 8.40625 75.4899 8.40625C75.6675 8.40625 75.8379 8.4768 75.9634 8.60238L78.7744 11.4134C78.8678 11.5071 78.9314 11.6263 78.9571 11.7561C78.9829 11.8859 78.9696 12.0203 78.919 12.1426C78.8684 12.2648 78.7828 12.3693 78.6729 12.443C78.563 12.5166 78.4337 12.5561 78.3014 12.5564" fill="#F251A4"/>
<path d="M73.5299 11.9441C73.4419 11.9442 73.3547 11.927 73.2733 11.8933C73.192 11.8597 73.1181 11.8104 73.0558 11.7481C72.9936 11.6859 72.9442 11.612 72.9106 11.5306C72.877 11.4493 72.8597 11.3621 72.8599 11.2741V10.4381C72.8564 10.348 72.8711 10.2581 72.9032 10.1738C72.9353 10.0896 72.984 10.0126 73.0466 9.94767C73.1091 9.88269 73.184 9.831 73.267 9.79569C73.35 9.76039 73.4392 9.74219 73.5294 9.74219C73.6195 9.74219 73.7088 9.76039 73.7917 9.79569C73.8747 9.831 73.9497 9.88269 74.0122 9.94767C74.0747 10.0126 74.1235 10.0896 74.1555 10.1738C74.1876 10.2581 74.2024 10.348 74.1989 10.4381V11.2761C74.199 11.3641 74.1818 11.4513 74.1481 11.5326C74.1145 11.614 74.0652 11.6879 74.0029 11.7501C73.9407 11.8124 73.8668 11.8617 73.7854 11.8953C73.7041 11.929 73.6169 11.9462 73.5289 11.9461" fill="#F251A4"/>
<path d="M71.2728 5.52969C71.1846 5.52921 71.0974 5.51129 71.0163 5.47696C70.9351 5.44264 70.8615 5.39259 70.7998 5.32969L69.0868 3.61969C68.9612 3.49411 68.8906 3.32379 68.8906 3.14619C68.8906 2.9686 68.9612 2.79827 69.0868 2.67269C69.2123 2.54711 69.3827 2.47656 69.5603 2.47656C69.7379 2.47656 69.9082 2.54711 70.0338 2.67269L71.7468 4.38569C71.8402 4.47939 71.9037 4.59863 71.9294 4.7284C71.9552 4.85817 71.9419 4.99265 71.8913 5.11489C71.8407 5.23713 71.7551 5.34165 71.6452 5.41529C71.5353 5.48893 71.4061 5.52839 71.2738 5.52869" fill="#F251A4"/>
<path d="M70.0517 7.78872H67.8287C67.7386 7.7922 67.6487 7.77746 67.5645 7.74539C67.4802 7.71331 67.4033 7.66456 67.3383 7.60204C67.2733 7.53953 67.2216 7.46455 67.1863 7.38158C67.151 7.29862 67.1328 7.20938 67.1328 7.11922C67.1328 7.02905 67.151 6.93982 67.1863 6.85685C67.2216 6.77389 67.2733 6.69891 67.3383 6.63639C67.4033 6.57388 67.4802 6.52513 67.5645 6.49305C67.6487 6.46097 67.7386 6.44624 67.8287 6.44972H70.0517C70.2248 6.45641 70.3885 6.52987 70.5086 6.6547C70.6287 6.77952 70.6958 6.946 70.6958 7.11922C70.6958 7.29243 70.6287 7.45892 70.5086 7.58374C70.3885 7.70856 70.2248 7.78203 70.0517 7.78872Z" fill="#F251A4"/>
<path d="M68.1997 13.1222C68.0674 13.1219 67.9382 13.0824 67.8283 13.0088C67.7184 12.9352 67.6328 12.8306 67.5822 12.7084C67.5316 12.5861 67.5183 12.4517 67.544 12.3219C67.5698 12.1921 67.6333 12.0729 67.7267 11.9792L71.2207 8.48519C71.3463 8.35961 71.5166 8.28906 71.6942 8.28906C71.7822 8.28906 71.8692 8.30638 71.9505 8.34004C72.0317 8.37369 72.1055 8.42301 72.1677 8.48519C72.2299 8.54737 72.2792 8.62119 72.3129 8.70244C72.3465 8.78368 72.3639 8.87076 72.3639 8.95869C72.3639 9.04663 72.3465 9.13371 72.3129 9.21495C72.2792 9.29619 72.2299 9.37001 72.1677 9.43219L68.6737 12.9262C68.612 12.9891 68.5384 13.0391 68.4572 13.0735C68.376 13.1078 68.2889 13.1257 68.2007 13.1262" fill="#F251A4"/>
<path d="M105.103 19.2064C105.103 19.2064 104.208 20.9854 104.642 22.8251C104.642 22.8251 106.282 21.6211 108.19 21.6657C110.098 21.7089 110.739 22.1494 111.332 22.6207C111.332 22.6207 111.892 20.4628 111.381 19.3032C111.006 18.4553 109.856 18.0251 108.26 18.0011C108.2 18.0011 108.142 18 108.084 18C106.585 18 105.576 18.299 105.103 19.2064Z" fill="url(#paint0_linear_2578_644)"/>
<path d="M102.926 23.8574C102.549 25.0353 104.034 28.9189 105.734 32.0834C107.434 35.248 109.984 40.452 113.54 46.4924L115.818 42.1878C115.818 42.1878 109.1 29.4369 108.401 27.9293C107.702 26.4218 104.212 20.9279 105.107 19.207C105.107 19.207 103.304 22.6786 102.927 23.8574" fill="url(#paint1_linear_2578_644)"/>
<path d="M107.83 27.9227C107.088 29.4096 100 41.9574 100 41.9574L102.152 46.3272C105.882 40.3939 108.583 35.2676 110.374 32.1532C112.166 29.0387 113.763 25.202 113.421 24.0128C113.081 22.8294 111.397 19.3362 111.38 19.3008C112.222 21.0479 108.575 26.4356 107.832 27.9227" fill="url(#paint2_linear_2578_644)"/>
<defs>
<linearGradient id="paint0_linear_2578_644" x1="111.596" y1="20.4125" x2="104.523" y2="20.4125" gradientUnits="userSpaceOnUse">
<stop stop-color="#E42B80"/>
<stop offset="1" stop-color="#9D185B"/>
</linearGradient>
<linearGradient id="paint1_linear_2578_644" x1="104" y1="22.5" x2="114.5" y2="44.5" gradientUnits="userSpaceOnUse">
<stop stop-color="#AF206C"/>
<stop offset="0.506069" stop-color="#F03894"/>
<stop offset="1" stop-color="#F03894"/>
</linearGradient>
<linearGradient id="paint2_linear_2578_644" x1="112" y1="24" x2="102" y2="42.5" gradientUnits="userSpaceOnUse">
<stop stop-color="#F03A95"/>
<stop offset="0.47" stop-color="#F773BC"/>
<stop offset="1" stop-color="#F03894"/>
</linearGradient>
</defs>
</svg>
